HIERARCHY
ROOT pelvis
{
	OFFSET 0.000000 0.000000 0.000000
	CHANNELS 6 Xposition Yposition Zposition Zrotation Xrotation Yrotation
	JOINT lfemur
	{
		OFFSET 11.446000 0.000000 0.000000
		CHANNELS 3 Zrotation Xrotation Yrotation
		JOINT ltibia
		{
			OFFSET 0.000000 -42.030400 0.000000
			CHANNELS 3 Zrotation Xrotation Yrotation
			JOINT lfoot
			{
				OFFSET 0.000000 -39.930200 0.000000
				CHANNELS 3 Zrotation Xrotation Yrotation
				JOINT ltoes
				{
					OFFSET 0.000000 0.000000 11.775800
					CHANNELS 3 Zrotation Xrotation Yrotation
					End Site
					{
					    OFFSET 0.000000 0.000000 5.000000
					}
				}
			}
		}
	}
	JOINT rfemur
	{
		OFFSET -11.446000 0.000000 0.000000
		CHANNELS 3 Zrotation Xrotation Yrotation
		JOINT rtibia
		{
			OFFSET 0.000000 -42.030400 0.000000
			CHANNELS 3 Zrotation Xrotation Yrotation
			JOINT rfoot
			{
				OFFSET 0.000000 -39.930200 0.000000
				CHANNELS 3 Zrotation Xrotation Yrotation
				JOINT rtoes
				{
					OFFSET 0.000000 0.000000 11.775800
					CHANNELS 3 Zrotation Xrotation Yrotation
					End Site
					{
					    OFFSET 0.000000 0.000000 5.000000
					}
				}
			}
		}
	}
	JOINT thorax
	{
		OFFSET 0.000000 11.255600 -5.000000
		CHANNELS 3 Zrotation Xrotation Yrotation
		JOINT head
		{
			OFFSET 0.000000 43.799300 0.000000
			CHANNELS 3 Zrotation Xrotation Yrotation
			End Site
			{
			    OFFSET 0.000000 5.000000 0.000000
			}
		}
		JOINT lclavicle
		{
			OFFSET 0.000000 39.863000 0.000000
			CHANNELS 3 Zrotation Xrotation Yrotation
			JOINT lhumerus
			{
				OFFSET 17.380600 4.958300 0.000000
				CHANNELS 3 Zrotation Xrotation Yrotation
				JOINT lradius
				{
					OFFSET 0.000000 -27.561300 0.000000
					CHANNELS 3 Zrotation Xrotation Yrotation
					JOINT lhand
					{
						OFFSET 0.000000 -26.933000 0.000000
						CHANNELS 3 Zrotation Xrotation Yrotation
						End Site
						{
						    OFFSET 0.000000 -5.000000 0.000000
						}
					}
				}
			}
		}
		JOINT rclavicle
		{
			OFFSET 0.000000 39.863000 0.000000
			CHANNELS 3 Zrotation Xrotation Yrotation
			JOINT rhumerus
			{
				OFFSET -17.380600 4.958300 0.000000
				CHANNELS 3 Zrotation Xrotation Yrotation
				JOINT rradius
				{
					OFFSET 0.000000 -27.561300 0.000000
					CHANNELS 3 Zrotation Xrotation Yrotation
					JOINT rhand
					{
						OFFSET 0.000000 -26.933000 0.000000
						CHANNELS 3 Zrotation Xrotation Yrotation
						End Site
						{
						    OFFSET 0.000000 -5.000000 0.000000
						}
					}
				}
			}
		}
	}
}
MOTION
Frames:	20
Frame Time:	0.0333333
-67.3482 81.2181 -199.882 -1.49149 -3.00897 0.00391164 -1.89021 -35.5884 -2.78213 2.28477 73.0057 -2.26244 1.26735 -4.48482 0.225837 -6.31137e-016 -5 -3.99088e-016 4.67024 -16.9928 -5.34848 -0.890397 59.1561 0.461378 -2.75259 -14.0895 -12.7028 -0 -5 -0 4.89698 13.6748 -9.71111 -0.609763 -10.2995 0.461272 1.98785e-016 0 1.59028e-015 14.1505 16.8492 -37.2336 69.2979 -52.328 48.696 -0.241207 1.95772 14.0718 1.98785e-016 0 1.59028e-015 -14.9448 3.59331 54.1278 -114.19 -47.8924 -87.4489 0.131628 1.45287 -10.3862 
-66.9546 82.8682 -185.058 -0.891239 -4.23111 -1.96156 -4.81451 -35.5988 -3.01307 0.631475 52.791 -0.755335 1.12156 0.0371898 2.19036 9.93923e-017 -5 -0 0.662207 -11.9243 -5.19587 -1.44541 66.8385 1.02585 0.145943 -2.43871 -2.2835 -1.52071e-015 -5 7.98176e-016 4.21798 14.7051 -4.1841 -0.792691 -9.28166 -2.21812 1.98785e-016 0 2.38542e-015 14.4835 22.6162 -41.3777 79.0916 -53.038 57.2187 -0.418494 2.56278 18.5652 1.98785e-016 0 2.38542e-015 -17.3116 2.92417 52.5786 -123.098 -44.1161 -94.7462 0.414849 2.55237 -18.4813 
-67.2848 83.8832 -171.124 -0.0523407 -6.18491 -2.66049 -5.74373 -30.4908 -0.0560471 0.157966 30.0503 -0.211042 1.41801 15.3207 -0.94691 -7.95139e-016 -5 -0 -3.60306 -10.2621 -5.2931 -2.49899 73.9822 2.34294 -3.66399 13.7207 7.16996 -3.97569e-016 -5 -0 2.80863 15.6326 0.0108206 -0.769894 -6.80991 -4.31462 2.48481e-016 -4.77083e-015 -0 17.1646 27.7772 -45.8911 87.0524 -52.9605 64.1628 -0.473066 2.72 19.7496 2.48481e-016 -4.77083e-015 -0 -17.8798 4.73258 51.2816 -128.974 -40.809 -99.3782 0.266666 2.05702 -14.7995 
-67.6207 83.3369 -157.622 -0.806953 -8.00712 -2.23228 -6.20261 -26.4062 1.31135 0.0781942 21.6757 0.0161178 -0.0439544 25.8545 2.94683 -6.06289e-016 -5 -3.99088e-016 -5.39154 -11.1656 -7.11197 -5.04423 80.7976 5.04737 -0.37163 5.85875 -2.69273 -4.66648e-015 -5 1.19726e-015 2.65137 19.7 2.90762 -0.124484 -8.10839 -8.1289 7.45443e-017 -1.59028e-015 -3.97569e-016 19.6324 26.43 -48.4679 91.2726 -52.6817 67.8374 -0.347368 2.3409 16.9012 7.45443e-017 -1.59028e-015 -3.97569e-016 -16.4126 4.82613 47.4992 -131.29 -39.294 -101.151 0.140327 1.49995 -10.7335 
-67.8714 81.4606 -144.735 -1.83392 -9.50371 -1.15647 -6.49934 -27.2644 2.41929 0.200784 34.0807 -0.159352 1.66047 17.6916 -1.21468 -2.65872e-016 -5 -1.99544e-016 -7.56355 -16.9732 -10.5841 -11.9783 85.7469 11.9126 0.889987 -0.131595 -13.0875 1.39131e-016 -5 1.59635e-015 4.02889 20.4066 0.44684 0.358448 -6.97545 -5.64531 6.98852e-018 0 -1.55301e-016 18.7581 24.6878 -47.1257 89.7384 -52.8024 66.5023 -0.329664 2.28183 16.4621 6.98852e-018 0 -1.55301e-016 -14.4936 6.91762 45.9515 -128.356 -41.1914 -98.8996 0.166904 1.6333 -11.6989 
-68.1257 78.9026 -132.563 -1.77389 -10.653 -0.447502 -7.69326 -26.2714 1.56246 0.562102 50.8449 -0.38819 4.92902 -1.37584 2.26723 -1.61524e-017 -5 9.9772e-017 -10.5249 -26.3584 -12.7573 -12.2963 85.9035 12.1146 0.208073 -3.08064 -15.9256 2.76316e-015 -5 -4.78906e-015 3.73021 21.8204 -1.31021 0.809871 -7.43561 -4.14795 -1.98785e-016 0 -1.98785e-016 17.8044 17.8464 -45.2522 81.7446 -53.077 59.5324 -0.457771 2.67716 19.4275 -1.98785e-016 0 -1.98785e-016 -11.4065 8.31206 43.0384 -120.359 -45.4211 -92.5333 0.131985 1.45464 -10.399 
-68.4623 76.963 -121.546 2.41886 -9.46596 -4.02075 -10.4368 -23.8922 6.64114 0.962984 59.7826 -0.160222 7.62977 -12.2794 5.87564 -3.62787e-016 -5 3.99088e-016 -13.3653 -39.4333 -7.78737 -3.15331 76.8483 3.03857 -0.351187 -1.56144 -12.0103 2.78262e-016 -5 3.1927e-015 -4.40716 21.661 2.46777 2.79557 -8.19999 -2.11169 9.93923e-017 -1.59028e-015 3.97569e-016 18.3538 9.25628 -41.5935 70.7521 -52.4918 49.9571 -0.318931 2.24505 16.1937 9.93923e-017 -1.59028e-015 3.97569e-016 -7.26284 8.61283 41.9001 -112.027 -48.6184 -85.6398 0.148717 1.5434 -11.0415 
-68.5018 77.7994 -110.129 0.417619 -8.81893 -2.35859 -8.61176 -19.8127 6.38594 1.63631 68.0708 -0.561185 9.27619 -13.5561 4.14881 -1.07469e-016 -5 4.9886e-017 -10.6396 -38.7052 -3.8944 -0.644761 53.4532 0.716283 -1.10415 7.29834 -0.155079 1.19271e-015 -5 -0 -0.756801 21.8731 0.609249 0.921455 -9.29548 -0.871 4.96962e-017 0 7.95139e-016 16.945 6.1743 -42.0654 73.3038 -52.729 52.1747 -0.317202 2.23921 16.1498 4.96962e-017 0 7.95139e-016 -7.89392 10.4647 43.9955 -113.347 -48.1828 -86.7455 0.278338 2.10106 -15.1203 
-68.8653 78.6978 -98.8583 -2.27674 -9.16665 5.23615 -3.42617 -22.9542 4.73612 6.166 82.4347 -6.46778 10.5999 -2.43336 -6.89901 9.69053e-016 -5 1.99544e-015 -10.5933 -30.3526 -2.48479 -0.194922 33.844 0.290489 -0.379196 19.5727 -1.37413 7.18105e-016 -5 3.99088e-016 4.30662 22.6699 -4.81656 0.751138 -11.3137 -2.40068 -4.96962e-017 -3.18055e-015 -1.98785e-016 18.4762 5.75894 -47.0108 87.2528 -52.9515 64.3352 -0.524106 2.85817 20.8006 -4.96962e-017 -3.18055e-015 -1.98785e-016 -7.70022 11.1003 46.578 -117.76 -46.5373 -90.4073 0.179665 1.69413 -12.1373 
-69.373 78.2717 -87.5099 -3.81156 -10.4843 14.6742 0.192782 -28.7601 1.33784 26.3615 87.9841 -26.8614 2.00327 0.855906 -8.7567 -7.95139e-016 -5 -0 -11.3603 -23.9519 -2.45949 -0.218896 36.9726 -0.74433 0.133103 9.16568 -2.88722 4.3037e-015 -5 -7.98176e-016 7.39836 22.3548 -8.27657 2.22615 -10.8852 -5.7841 7.95139e-016 0 1.59028e-015 22.1411 6.01212 -53.765 101.463 -51.2891 76.6538 -0.325641 2.26838 16.3605 7.95139e-016 0 1.59028e-015 -6.47811 11.0605 48.5908 -120.385 -45.4092 -92.5558 0.174173 1.66827 -11.9494 
-69.9199 77.1166 -76.4561 -4.20991 -13.1634 19.5503 2.7643 -33.3647 4.5043 15.2642 86.6881 -15.7236 1.03853 -3.53215 -6.42911 -0 -5 -0 -10.0895 -18.2044 -3.7861 -0.44557 47.9561 -0.256589 0.95525 -5.91069 -3.46662 -9.93923e-016 -5 -0 8.30327 25.0566 -5.88785 2.2148 -11.6483 -7.35038 -0 0 1.59028e-015 24.1286 5.61045 -56.1921 112.674 -48.409 86.1816 -0.267224 2.05924 14.8127 -0 0 1.59028e-015 -5.87506 8.73236 49.7521 -120.366 -45.4184 -92.5398 0.105929 1.30485 -9.31637 
-70.0165 76.7905 -66.0013 -7.55143 -14.5356 22.0552 5.15034 -38.0221 8.49204 3.3932 77.6294 -3.53036 1.07761 -4.03918 -2.9715 -0 -5 -0 -5.20057 -14.9209 -7.1115 -0.808913 57.62 -0.620016 -0.540238 -11.9335 -5.03206 -1.39131e-016 -5 -1.59635e-015 12.5033 25.2991 -3.5605 1.28902 -11.6298 -7.97984 -1.59028e-015 1.59028e-015 -3.18055e-015 21.2642 7.50143 -53.2253 116.888 -46.8874 89.6877 -0.371077 2.41759 17.4712 -1.59028e-015 1.59028e-015 -3.18055e-015 -8.89439 5.70605 49.9947 -116.217 -47.1479 -89.1332 0.104632 1.29706 -9.25997 
-67.8421 77.4009 -56.3855 -4.69591 -13.3341 23.3441 -2.32558 -35.8719 9.96763 0.995662 60.9888 -1.00722 1.89529 2.24046 -6.3172 3.57812e-015 -5 -0 -11.4515 -16.5054 -8.85578 -1.93561 71.2184 0.292139 0.998289 -4.8183 5.60807 3.04142e-015 -5 -1.59635e-015 9.26362 25.8648 0.545145 2.51985 -10.3655 -5.32565 1.59028e-015 1.59028e-015 -3.18055e-015 17.9936 10.6445 -48.7791 120.491 -45.3613 92.641 -0.549017 2.92272 21.2906 1.59028e-015 1.59028e-015 -3.18055e-015 -12.0266 4.56933 46.7336 -107.798 -49.8545 -82.0681 0.0340382 0.745099 -5.299 
-65.2586 77.2472 -47.1511 -2.65451 -12.4508 23.3915 -8.36939 -31.6298 10.1211 0.697917 54.8861 -0.740723 4.8652 2.84921 0.0361561 -5.16876e-016 -5 3.1927e-015 -17.9039 -20.3085 -10.7604 -3.32549 77.3187 2.78504 -1.99004 3.50348 10.47 4.90996e-015 -5 1.59635e-015 8.19144 25.8814 2.09463 1.55446 -9.72245 -2.50372 -7.95139e-016 1.59028e-015 -0 15.3993 16.3085 -45.1165 126.343 -42.3787 97.3263 -0.7275 3.34399 24.5577 -7.95139e-016 1.59028e-015 -0 -16.6141 4.43951 44.2023 -102.56 -51.0735 -77.5956 0.192732 1.75392 -12.5747 
-63.4614 76.7036 -38.1188 -3.3969 -12.9448 22.8991 -8.64675 -28.7444 8.46671 1.12457 62.7715 -0.738801 8.00663 -5.71877 6.68271 5.56525e-016 -5 6.38541e-015 -17.3608 -22.3188 -9.09515 -1.66226 68.7593 1.39777 -0.515295 1.9114 -2.16463 -4.35344e-015 -5 4.78906e-015 9.57513 26.0736 2.62891 1.28323 -8.55274 0.798609 0 0 -6.36111e-015 15.0344 18.4923 -43.3417 129.688 -40.3534 99.9294 -0.740404 3.37196 24.7799 0 0 -6.36111e-015 -19.4334 5.55488 42.159 -100.498 -51.4666 -75.823 0.188001 1.73273 -12.4199 
-61.7378 76.2397 -29.2456 -4.17387 -12.1963 23.8469 -7.25162 -27.9311 5.21588 2.11706 72.046 -1.50168 9.02886 -10.5609 4.31474 -1.59028e-015 -5 -0 -15.58 -22.5563 -2.46023 -0.510609 49.3397 0.52392 -0.841151 1.30266 -0.0556496 -0 -5 -0 10.7527 25.7948 1.5517 0.680005 -9.02028 4.03296 -2.38542e-015 -1.59028e-015 -3.18055e-015 16.5707 18.0338 -42.5325 130.452 -39.8554 100.514 -0.684014 3.24716 23.8038 -2.38542e-015 -1.59028e-015 -3.18055e-015 -20.0926 6.71935 39.8515 -98.5049 -51.8027 -74.1045 0.101969 1.28109 -9.14622 
-60.0152 76.2368 -20.6501 -4.48766 -10.7865 25.6372 -3.45539 -30.2647 8.28345 7.28731 83.5411 -7.33885 9.20903 -6.09325 -0.743607 -3.45882e-015 -5 -3.1927e-015 -15.4077 -20.2742 2.29947 -0.161243 31.557 -0.00683296 -0.841285 5.14785 2.43383 -6.75832e-016 -5 -3.1927e-015 11.1062 25.2663 0.681003 -0.0564055 -10.2984 6.17695 -1.76556e-031 -1.59028e-015 -6.36111e-015 18.7988 16.1938 -42.692 129.145 -40.7001 99.5104 -0.711257 3.30819 24.2795 -1.76556e-031 -1.59028e-015 -6.36111e-015 -19.7568 6.16082 38.0812 -93.6312 -52.4519 -69.8845 0.216722 1.85827 -13.3382 
-58.6806 75.3584 -12.4555 -7.63809 -11.2506 30.7655 3.5552 -36.902 9.71511 161.21 87.0725 -161.911 8.65067 -1.06878 -9.5051 1.59028e-015 -5 -0 -12.9981 -19.5658 0.109906 -0.175954 34.4702 0.727858 6.01356 2.54529 -2.40085 4.37326e-015 -5 -0 15.8181 23.5299 -1.7384 -0.153347 -11.0046 6.1731 1.76556e-031 3.18055e-015 -3.18055e-015 19.2597 13.6834 -44.9041 126.814 -42.1089 97.6964 -0.914257 3.72489 27.5877 1.76556e-031 3.18055e-015 -3.18055e-015 -18.9389 6.94214 37.1609 -89.8912 -52.7912 -66.6335 0.257522 2.02255 -14.5448 
-56.4774 74.5123 -4.19239 -1.53209 -12.4345 37.1055 1.00672 -36.2538 11.5253 148.216 88.2182 -148.556 2.84626 -1.64343 -8.70555 3.73708e-015 -5 6.38541e-015 -16.9597 -14.1341 -3.07203 -0.418146 47.6604 0.607692 5.12591 -10.2496 -3.07873 -7.65357e-016 -5 3.1927e-015 9.23245 29.1663 -1.27557 3.48995 -13.2708 4.29442 -3.18055e-015 -3.18055e-015 -6.36111e-015 19.7943 9.00589 -44.7794 120.659 -45.2848 92.777 -0.921237 3.73845 27.6938 -3.18055e-015 -3.18055e-015 -6.36111e-015 -15.0013 3.91824 37.747 -86.4209 -52.9881 -63.6103 0.201715 1.79357 -12.8671 
-55.0933 73.5158 4.07003 -5.91414 -15.2983 39.9332 7.32508 -42.9078 15.7759 66.3954 89.008 -66.4015 1.16941 -5.84109 -6.11719 5.16876e-016 -5 -3.1927e-015 -9.63201 -9.54992 -6.75151 -0.556629 51.6494 -0.0434447 2.11001 -17.5925 -6.66186 -2.58348e-016 -5 -6.38541e-015 15.593 29.3326 0.886147 2.73326 -14.7032 1.80275 -1.59028e-015 -4.77083e-015 3.18055e-015 14.4518 7.66739 -44.1744 109.935 -49.2593 83.8779 -0.751319 3.39595 24.9642 -1.59028e-015 -4.77083e-015 3.18055e-015 -16.1101 -0.0177326 40.6098 -84.5329 -53.0485 -61.9636 0.198007 1.77748 -12.7499 
